<svg xmlns="http://www.w3.org/2000/svg" width="64" height="25.77675" shape-rendering="geometricPrecision" text-rendering="geometricPrecision" image-rendering="optimizeQuality" fill-rule="evenodd" clip-rule="evenodd" viewBox="0 0 512 206.214"><g fill-rule="nonzero"><path fill="#1A1A1A" d="M2.831 100.065L84.386 4.794A11.808 11.808 0 0193.891 0h384.291c9.58 0 17.82 2.152 24.97 9.532 5.348 5.514 8.636 12.984 8.799 21.282l.049 1.061v143.087c-.023.549-.06 1.103-.14 1.661a34.823 34.823 0 01-11.223 21.05c-5.657 5.061-12.947 8.193-20.91 8.466l-5.806.065H98.208c-4.903 0-8.971.391-12.859-3.693L3.248 115.858c-4.123-4.323-4.384-11.155-.417-15.793z"/><path fill="#FD5" d="M93.891 11.821L11.79 107.73l82.101 86.653h384.584c10.944.058 20.124-8.322 21.704-19.421V31.875c.207-11.088-8.336-19.895-19.419-20.054H93.891z"/><path d="M62.827 87.76c4.22-4.365 9.369-6.608 15.416-6.758 6.074-.178 11.41 1.837 16.004 6.046 4.335 4.192 6.551 9.371 6.675 15.507.067 6.137-1.981 11.386-6.173 15.721-4.072 4.445-9.219 6.745-15.409 6.93-6.162.154-11.44-1.863-15.804-6.084-4.455-4.301-6.759-9.504-6.854-15.671-.095-6.107 1.953-11.356 6.145-15.691zM228.915 143.159h-28.199l-10.509-23.84h-5.512v23.84h-25.634V63.05h40.375c18.372 0 27.556 9.357 27.556 28.07 0 12.817-3.974 21.278-11.921 25.378l13.844 26.661zm-44.22-59.602v16.022h5.896c3.077 0 5.32-.319 6.73-.961 1.41-.64 2.115-2.113 2.115-4.422v-5.254c0-2.308-.705-3.781-2.115-4.423-1.41-.64-3.653-.962-6.73-.962h-5.896zm104.461 29.353h-25.634v9.741h31.402v20.508h-57.037V63.05h56.397l-3.204 20.507h-27.558v10.768h25.634v18.585zm63.704 30.249l-19.612-28.455c-.682-.94-1.111-2.99-1.28-6.152h-.515v34.607h-25.634V63.05h24.096l19.612 28.454c.682.94 1.11 2.993 1.28 6.153h.514V63.05h25.635v80.109H352.86zm93.949-59.602h-18.585v59.602h-25.635V83.557h-18.585V63.05h62.805v20.507z"/></g></svg>